HIERARCHY
ROOT Elbow
{
	OFFSET	0.00	0.00	0.00
	CHANNELS 6 Xposition Yposition Zposition Zrotation Xrotation Yrotation
	JOINT L_Wrist
	{
		OFFSET	 0.179080	-0.001510	 0.003750
		CHANNELS 3 Zrotation Xrotation Yrotation
		JOINT L_index_Proximal
		{
			OFFSET	 0.090231	 0.026711	-0.002084
			CHANNELS 3 Zrotation Xrotation Yrotation
			JOINT L_index_b
			{
				OFFSET	 0.033152	 0.000000	 0.000000
				CHANNELS 3 Zrotation Xrotation Yrotation
				JOINT L_index_c
				{
					OFFSET	 0.018651	 0.000000	 0.000000
					CHANNELS 3 Zrotation Xrotation Yrotation
					End Site
					{
						OFFSET	 0.018651	 0.000000	 0.000000
					}
				}
			}
		}
		JOINT L_middle_Proximal
		{
			OFFSET	 0.090317	 0.009716	-0.003750
			CHANNELS 3 Zrotation Xrotation Yrotation
			JOINT L_middle_b
			{
				OFFSET	 0.037195	 0.000000	 0.000000
				CHANNELS 3 Zrotation Xrotation Yrotation
				JOINT L_middle_c
				{
					OFFSET	 0.021943	 0.000000	 0.000000
					CHANNELS 3 Zrotation Xrotation Yrotation
					End Site
					{
						OFFSET	 0.021943	 0.000000	 0.000000
					}
				}
			}
		}
		JOINT L_pinky_Proximal
		{
			OFFSET	 0.079047	-0.022058	-0.000417
			CHANNELS 3 Zrotation Xrotation Yrotation
			JOINT L_pinky_b
			{
				OFFSET	 0.027285	 0.000000	 0.000000
				CHANNELS 3 Zrotation Xrotation Yrotation
				JOINT L_pinky_c
				{
					OFFSET	 0.015093	 0.000000	 0.000000
					CHANNELS 3 Zrotation Xrotation Yrotation
					End Site
					{
						OFFSET	 0.015093	 0.000000	 0.000000
					}
				}
			}
		}
		JOINT L_ring_Proximal
		{
			OFFSET	 0.085339	-0.007148	-0.003750
			CHANNELS 3 Zrotation Xrotation Yrotation
			JOINT L_ring_b
			{
				OFFSET	 0.034478	 0.000000	 0.000000
				CHANNELS 3 Zrotation Xrotation Yrotation
				JOINT L_ring_c
				{
					OFFSET	 0.021377	 0.000000	 0.000000
					CHANNELS 3 Zrotation Xrotation Yrotation
					End Site
					{
						OFFSET	 0.021377	 0.000000	 0.000000
					}
				}
			}
		}
		JOINT L_thumb_Proximal
		{
			OFFSET	 0.026628	 0.023509	 0.004584
			CHANNELS 3 Zrotation Xrotation Yrotation
			JOINT L_thumb_a
			{
				OFFSET	 0.038520	 0.000000	 0.000000
				CHANNELS 3 Zrotation Xrotation Yrotation
				JOINT L_thumb_b
				{
					OFFSET	 0.026310	 0.000000	 0.000000
					CHANNELS 3 Zrotation Xrotation Yrotation
					End Site
					{
						OFFSET	 0.026310	 0.000000	 0.000000
					}
				}
			}
		}
	}
}
MOTION
Frames:    10
Frame Time: 0.01666667
 0.233163	-0.235186	 0.700891	-85.824230	 51.576040	-50.830030	-17.433780	 0.000002	 8.795866	 7.716241	 1.798779	-76.860430	-3.735619	 3.335059	-83.511150	-4.950891	 1.641182	-36.661010	 0.842055	-8.945375	-79.260520	 4.511781	-4.868651	-94.362300	 4.214049	-1.680407	-43.465600	-20.662080	-16.178450	-89.175930	 0.647070	-0.574855	-83.234650	 3.224865	-1.149129	-39.216810	-10.009860	-10.177330	-84.217190	 4.413883	-4.627646	-92.711530	 4.443730	-1.563505	-38.752330	 75.194690	 57.505390	-25.747180	-1.952070	-0.086604	 5.079679	 2.486274	-0.149565	-6.884714
 0.233040	-0.235134	 0.701042	-85.732490	 51.614010	-50.901940	-17.486340	 0.000004	 8.782865	 7.721133	 1.794918	-76.866230	-3.734194	 3.334626	-83.525340	-4.989677	 1.653409	-36.647690	 0.846174	-8.948760	-79.257630	 4.519487	-4.882288	-94.424800	 4.239642	-1.690284	-43.457760	-20.694840	-16.146280	-89.124340	 0.625850	-0.556470	-83.283160	 3.224042	-1.148812	-39.216080	-10.024500	-10.161150	-84.232930	 4.407894	-4.629217	-92.808690	 4.474335	-1.573272	-38.729920	 75.143430	 57.527130	-25.689900	-1.933594	-0.086597	 5.128155	 2.491638	-0.150551	-6.913970
 0.232909	-0.235118	 0.701061	-85.707730	 51.634940	-50.927610	-17.512080	 0.000009	 8.763178	 7.733854	 1.783512	-76.886590	-3.744118	 3.344532	-83.543170	-5.012602	 1.660324	-36.633340	 0.861809	-8.963790	-79.244350	 4.532495	-4.898373	-94.448430	 4.255445	-1.696194	-43.448760	-20.686530	-16.156310	-89.112530	 0.622984	-0.554104	-83.302430	 3.229489	-1.150072	-39.194850	-10.011090	-10.175320	-84.237560	 4.414658	-4.638565	-92.836660	 4.477560	-1.573415	-38.706780	 75.168310	 57.517210	-25.712980	-1.925413	-0.086363	 5.136382	 2.495037	-0.150456	-6.900354
 0.232833	-0.235044	 0.701159	-85.659610	 51.676400	-50.968120	-17.521730	 0.000007	 8.746914	 7.756910	 1.759129	-76.872500	-3.736329	 3.339082	-83.569110	-5.014846	 1.660263	-36.616740	 0.859279	-8.964065	-79.229890	 4.514343	-4.881141	-94.476400	 4.224052	-1.681987	-43.409290	-20.652240	-16.198250	-89.069640	 0.650759	-0.579265	-83.347440	 3.261167	-1.160418	-39.165780	-10.011250	-10.178270	-84.226790	 4.394970	-4.624531	-92.918920	 4.457091	-1.564879	-38.676560	 75.211920	 57.509960	-25.711410	-1.923426	-0.085456	 5.086329	 2.474873	-0.151000	-6.981871
 0.232810	-0.235131	 0.701170	-85.569940	 51.735290	-51.043480	-17.531520	-0.000004	 8.654549	 7.790802	 1.723608	-76.868990	-3.737237	 3.342324	-83.610440	-5.040412	 1.668474	-36.611600	 0.854476	-8.963426	-79.205920	 4.498802	-4.866634	-94.503300	 4.169443	-1.659794	-43.398870	-20.638710	-16.219200	-89.047910	 0.654374	-0.582588	-83.358090	 3.271165	-1.162781	-39.128630	-10.026130	-10.168380	-84.199520	 4.392426	-4.623370	-92.937660	 4.447259	-1.560543	-38.656290	 75.172420	 57.520890	-25.691720	-1.938826	-0.087571	 5.172172	 2.451121	-0.148569	-6.936285
 0.232892	-0.235363	 0.701356	-85.404680	 51.846090	-51.204230	-17.543920	 0.000006	 8.569112	 7.864053	 1.658950	-76.913620	-3.699784	 3.303721	-83.522540	-5.034412	 1.672408	-36.732750	 0.824584	-8.933067	-79.157700	 4.424437	-4.787834	-94.522720	 4.085328	-1.627011	-43.416740	-20.669620	-16.185880	-89.020820	 0.611001	-0.544170	-83.376830	 3.234883	-1.149263	-39.109130	-10.062070	-10.129750	-84.170120	 4.332205	-4.563978	-92.987690	 4.400344	-1.544603	-38.668660	 75.068440	 57.553730	-25.623070	-1.983635	-0.090841	 5.242950	 2.422664	-0.144738	-6.837481
 0.232889	-0.235428	 0.701411	-85.355370	 51.878700	-51.257120	-17.533270	-0.000005	 8.508116	 7.856570	 1.663055	-76.863600	-3.724923	 3.327751	-83.549510	-5.044723	 1.675677	-36.729610	 0.831101	-8.940852	-79.198110	 4.401131	-4.762959	-94.526790	 4.021380	-1.602328	-43.435980	-20.650400	-16.209020	-89.008280	 0.610144	-0.543611	-83.399620	 3.211504	-1.141159	-39.115200	-10.050790	-10.143580	-84.157360	 4.329865	-4.563916	-93.018060	 4.362130	-1.532482	-38.698880	 75.003940	 57.577410	-25.576830	-1.988158	-0.090488	 5.210380	 2.420368	-0.144511	-6.832744
 0.232790	-0.235716	 0.701450	-85.278790	 51.908710	-51.338050	-17.516450	 0.000001	 8.385385	 7.906031	 1.623012	-76.839700	-3.678009	 3.286541	-83.561780	-5.001778	 1.663602	-36.775190	 0.818564	-8.923745	-79.363030	 4.383169	-4.744502	-94.538570	 4.016586	-1.599676	-43.417950	-20.597970	-16.253970	-89.055690	 0.597865	-0.533234	-83.457900	 3.141572	-1.116647	-39.126720	-10.034690	-10.151460	-84.227050	 4.291172	-4.526943	-93.066090	 4.309887	-1.515779	-38.738670	 75.012000	 57.568800	-25.609640	-1.952851	-0.087720	 5.142956	 2.412581	-0.144213	-6.840283
 0.232653	-0.235902	 0.701497	-85.231730	 51.908410	-51.382090	-17.503530	-0.000007	 8.319800	 7.916629	 1.607864	-76.812590	-3.666367	 3.277671	-83.588490	-5.005542	 1.666697	-36.813000	 0.817092	-8.927440	-79.436060	 4.395851	-4.761305	-94.575830	 4.036527	-1.607124	-43.405750	-20.584630	-16.272780	-89.074120	 0.587439	-0.524358	-83.504400	 3.114218	-1.107164	-39.134670	-10.039310	-10.150680	-84.290470	 4.267368	-4.508218	-93.147220	 4.284410	-1.506351	-38.727090	 74.987400	 57.574550	-25.601660	-1.946789	-0.087190	 5.128216	 2.417519	-0.145047	-6.866693
 0.232613	-0.236051	 0.701670	-85.181420	 51.891120	-51.446670	-17.509060	 0.000000	 8.258491	 7.871495	 1.652651	-76.769040	-3.774097	 3.382549	-83.732750	-5.141912	 1.725135	-37.073070	 0.827381	-8.933965	-79.607900	 4.436693	-4.804359	-94.561860	 4.171691	-1.662132	-43.433590	-20.551970	-16.301160	-89.089530	 0.588536	-0.526028	-83.580830	 3.124768	-1.113472	-39.218040	-9.990044	-10.192610	-84.481130	 4.304987	-4.555070	-93.236980	 4.289222	-1.508786	-38.745310	 74.966450	 57.567300	-25.646840	-1.907534	-0.083606	 5.017799	 2.445314	-0.147388	-6.898870
